<svg xmlns="http://www.w3.org/2000/svg" xmlns:svg="http://www.w3.org/2000/svg" xmlns:xlink="http://www.w3.org/1999/xlink" id="svg2" width="287.966" height="269.872" version="1.1"><defs id="defs4"><linearGradient id="linearGradient3817"><stop style="stop-color:#bdbdbd;stop-opacity:1" id="stop3819" offset="0"/><stop style="stop-color:#ececec;stop-opacity:1" id="stop3821" offset="1"/></linearGradient><linearGradient id="linearGradient3801"><stop style="stop-color:#ececec;stop-opacity:1" id="stop3803" offset="0"/><stop style="stop-color:#bdbdbd;stop-opacity:1" id="stop3805" offset="1"/></linearGradient><linearGradient id="linearGradient3791"><stop style="stop-color:#ececec;stop-opacity:1" id="stop3793" offset="0"/><stop style="stop-color:#bdbdbd;stop-opacity:1" id="stop3795" offset="1"/></linearGradient><linearGradient id="linearGradient3767"><stop style="stop-color:#2b2b2b;stop-opacity:1" id="stop3769" offset="0"/><stop style="stop-color:#666;stop-opacity:1" id="stop3771" offset="1"/></linearGradient><linearGradient id="linearGradient3755"><stop style="stop-color:#ddd;stop-opacity:1" id="stop3757" offset="0"/><stop style="stop-color:#b2b2b2;stop-opacity:1" id="stop3759" offset="1"/></linearGradient><filter id="filter3781" width="1.159" height="1.466" x="-.08" y="-.233" style="color-interpolation-filters:sRGB"><feGaussianBlur id="feGaussianBlur3783" stdDeviation="13.323"/></filter><filter id="filter3842" width="1.364" height="1.891" x="-.182" y="-.445" style="color-interpolation-filters:sRGB"><feGaussianBlur id="feGaussianBlur3844" stdDeviation="4.404"/></filter><filter id="filter3868" style="color-interpolation-filters:sRGB"><feGaussianBlur id="feGaussianBlur3870" stdDeviation="1.865"/></filter><linearGradient id="linearGradient3884" x1="343.333" x2="422.529" y1="220.759" y2="140.957" gradientUnits="userSpaceOnUse" xlink:href="#linearGradient3817"/><radialGradient id="radialGradient3886" cx="280" cy="139.505" r="100" fx="280" fy="139.505" gradientTransform="matrix(1,0,0,0.7,0,57.7087)" gradientUnits="userSpaceOnUse" xlink:href="#linearGradient3791"/><radialGradient id="radialGradient3888" cx="280" cy="73.072" r="95.5" fx="280" fy="73.072" gradientTransform="matrix(1.83246,2.65218e-8,0,0.162304,-233.089,102.502)" gradientUnits="userSpaceOnUse" xlink:href="#linearGradient3801"/><radialGradient id="radialGradient3910" cx="392.143" cy="583.493" r="200.714" fx="392.143" fy="583.493" gradientTransform="matrix(1,0,0,0.341637,0,263.019)" gradientUnits="userSpaceOnUse" xlink:href="#linearGradient3767"/><radialGradient id="radialGradient3918" cx="392.143" cy="583.493" r="200.714" fx="392.143" fy="583.493" gradientTransform="matrix(1,0,0,0.341637,0,263.019)" gradientUnits="userSpaceOnUse" xlink:href="#linearGradient3767"/><radialGradient id="radialGradient3920" cx="396.429" cy="491.499" r="200.714" fx="396.429" fy="491.499" gradientTransform="matrix(1,0,0,0.341637,0,263.019)" gradientUnits="userSpaceOnUse" xlink:href="#linearGradient3755"/><filter id="filter3939" width="1.325" height="1.951" x="-.162" y="-.475" style="color-interpolation-filters:sRGB"><feGaussianBlur id="feGaussianBlur3941" stdDeviation="27.158"/></filter><radialGradient id="radialGradient3950" cx="280" cy="73.072" r="95.5" fx="280" fy="73.072" gradientTransform="matrix(1.83246,2.65218e-8,0,0.162304,-125.31,250.603)" gradientUnits="userSpaceOnUse" xlink:href="#linearGradient3801"/><radialGradient id="radialGradient3953" cx="280" cy="139.505" r="100" fx="280" fy="139.505" gradientTransform="matrix(1,0,0,0.7,107.779,205.809)" gradientUnits="userSpaceOnUse" xlink:href="#linearGradient3791"/><linearGradient id="linearGradient3957" x1="343.333" x2="422.529" y1="220.759" y2="140.957" gradientTransform="matrix(0.800412,0,0,0.800412,185.295,183.555)" gradientUnits="userSpaceOnUse" xlink:href="#linearGradient3817"/><linearGradient id="linearGradient3971" x1="343.333" x2="422.529" y1="220.759" y2="140.957" gradientTransform="matrix(0.800412,0,0,0.800412,185.295,183.555)" gradientUnits="userSpaceOnUse" xlink:href="#linearGradient3817"/><radialGradient id="radialGradient3973" cx="280" cy="139.505" r="100" fx="280" fy="139.505" gradientTransform="matrix(1,0,0,0.7,107.779,205.809)" gradientUnits="userSpaceOnUse" xlink:href="#linearGradient3791"/><radialGradient id="radialGradient3975" cx="280" cy="73.072" r="95.5" fx="280" fy="73.072" gradientTransform="matrix(1.83246,2.65218e-8,0,0.162304,-125.31,250.603)" gradientUnits="userSpaceOnUse" xlink:href="#linearGradient3801"/><radialGradient id="radialGradient3997" cx="392.143" cy="583.493" r="200.714" fx="392.143" fy="583.493" gradientTransform="matrix(1,0,0,0.341637,0,263.019)" gradientUnits="userSpaceOnUse" xlink:href="#linearGradient3767"/><radialGradient id="radialGradient3999" cx="392.143" cy="583.493" r="200.714" fx="392.143" fy="583.493" gradientTransform="matrix(1,0,0,0.341637,0,263.019)" gradientUnits="userSpaceOnUse" xlink:href="#linearGradient3767"/><radialGradient id="radialGradient4001" cx="396.429" cy="491.499" r="200.714" fx="396.429" fy="491.499" gradientTransform="matrix(1,0,0,0.341637,0,263.019)" gradientUnits="userSpaceOnUse" xlink:href="#linearGradient3755"/><linearGradient id="linearGradient4003" x1="343.333" x2="422.529" y1="220.759" y2="140.957" gradientTransform="matrix(0.800412,0,0,0.800412,185.295,183.555)" gradientUnits="userSpaceOnUse" xlink:href="#linearGradient3817"/><radialGradient id="radialGradient4005" cx="280" cy="139.505" r="100" fx="280" fy="139.505" gradientTransform="matrix(1,0,0,0.7,107.779,205.809)" gradientUnits="userSpaceOnUse" xlink:href="#linearGradient3791"/><radialGradient id="radialGradient4007" cx="280" cy="73.072" r="95.5" fx="280" fy="73.072" gradientTransform="matrix(1.83246,2.65218e-8,0,0.162304,-125.31,250.603)" gradientUnits="userSpaceOnUse" xlink:href="#linearGradient3801"/><linearGradient id="linearGradient3061" x1="343.333" x2="422.529" y1="220.759" y2="140.957" gradientTransform="matrix(0.800412,0,0,0.800412,185.295,183.555)" gradientUnits="userSpaceOnUse" xlink:href="#linearGradient3817"/><radialGradient id="radialGradient3063" cx="280" cy="139.505" r="100" fx="280" fy="139.505" gradientTransform="matrix(1,0,0,0.7,107.779,205.809)" gradientUnits="userSpaceOnUse" xlink:href="#linearGradient3791"/><radialGradient id="radialGradient3065" cx="280" cy="73.072" r="95.5" fx="280" fy="73.072" gradientTransform="matrix(1.83246,2.65218e-8,0,0.162304,-125.31,250.603)" gradientUnits="userSpaceOnUse" xlink:href="#linearGradient3801"/><radialGradient id="radialGradient3074" cx="280" cy="73.072" r="95.5" fx="280" fy="73.072" gradientTransform="matrix(1.83246,2.65218e-8,0,0.162304,-123.31,250.603)" gradientUnits="userSpaceOnUse" xlink:href="#linearGradient3801"/><radialGradient id="radialGradient3077" cx="280" cy="139.505" r="100" fx="280" fy="139.505" gradientTransform="matrix(1,0,0,0.7,109.779,205.809)" gradientUnits="userSpaceOnUse" xlink:href="#linearGradient3791"/><linearGradient id="linearGradient3081" x1="343.333" x2="422.529" y1="220.759" y2="140.957" gradientTransform="matrix(0.800412,0,0,0.800412,187.295,183.555)" gradientUnits="userSpaceOnUse" xlink:href="#linearGradient3817"/><radialGradient id="radialGradient3083" cx="392.143" cy="583.493" r="200.714" fx="392.143" fy="583.493" gradientTransform="matrix(1,0,0,0.341637,0,263.019)" gradientUnits="userSpaceOnUse" xlink:href="#linearGradient3767"/><radialGradient id="radialGradient3085" cx="392.143" cy="583.493" r="200.714" fx="392.143" fy="583.493" gradientTransform="matrix(1,0,0,0.341637,0,263.019)" gradientUnits="userSpaceOnUse" xlink:href="#linearGradient3767"/><radialGradient id="radialGradient3087" cx="396.429" cy="491.499" r="200.714" fx="396.429" fy="491.499" gradientTransform="matrix(1,0,0,0.341637,0,263.019)" gradientUnits="userSpaceOnUse" xlink:href="#linearGradient3755"/></defs><metadata id="metadata7"/><g id="layer1" transform="translate(-246.53213,-196.18057)"><g id="g3094"><ellipse style="fill:url(#radialGradient3083);fill-opacity:1;fill-rule:nonzero;stroke:none;filter:url(#filter3781)" id="path3779" cx="399.286" cy="399.505" rx="200.714" ry="68.571" transform="matrix(0.618775,0,0,0.646379,143.447,142.829)"/><ellipse id="path3765" cx="399.286" cy="399.505" rx="200.714" ry="68.571" transform="matrix(0.618775,0,0,0.646379,143.447,142.829)" style="fill:url(#radialGradient3085);fill-opacity:1;fill-rule:nonzero;stroke:none"/><ellipse style="fill:#f2f2f2;fill-opacity:1;fill-rule:nonzero;stroke:none" id="path3763" cx="399.286" cy="399.505" rx="200.714" ry="68.571" transform="matrix(0.646379,0,0,0.646379,132.426,136.365)"/><ellipse id="path2985" cx="399.286" cy="399.505" rx="200.714" ry="68.571" transform="matrix(0.646379,0,0,0.646379,132.426,133.78)" style="fill:url(#radialGradient3087);fill-opacity:1;fill-rule:nonzero;stroke:none"/><ellipse style="fill:#979797;fill-opacity:.39215686;fill-rule:nonzero;stroke:#b7b7b7;stroke-width:5.61860895;stroke-miterlimit:4;stroke-dasharray:none;stroke-opacity:1" id="path3775" cx="399.286" cy="399.505" rx="200.714" ry="68.571" transform="matrix(0.372876,0,0,0.319443,241.631,265.685)"/><ellipse id="path3926" cx="399.286" cy="399.505" rx="200.714" ry="68.571" transform="matrix(0.265496,0,0,0.200192,283.77,318.155)" style="fill:#000;fill-opacity:1;fill-rule:nonzero;stroke:none;filter:url(#filter3939)"/><path id="path3815" d="m 473.13884,312.5941 0.45571,-13.03877 c 16.79252,-1.26498 38.44962,-8.39059 38.25779,26.6325 -0.19184,35.02311 -38.64614,28.28143 -48.43686,23.68663 l 0.65784,-10.56391 c 7.09726,2.48526 35.21153,4.81796 35.59877,-13.93125 0.38725,-18.74922 -9.93254,-15.43796 -26.53325,-12.7852 z" style="fill:url(#linearGradient3081);fill-opacity:1;stroke:#d6d6d6;stroke-width:.80041194;stroke-opacity:1"/><path id="path3787" d="m 289.77863,270.46269 c 0,0 0,-20 100,-20 100,0 100,20 100,20 0,0 0,20 -100,20 -100,0 -100,-20 -100,-20 z" style="fill:#e6e6e6;fill-opacity:1;stroke:none"/><path id="path3789" d="m 289.77863,270.46269 c 0,0 0,140 100,140 100,0 100,-140 100,-140 0,0 0,20 -100,20 -100,0 -100,-20 -100,-20 z" style="fill:url(#radialGradient3077);fill-opacity:1;stroke:none"/><path style="fill:url(#radialGradient3074);fill-opacity:1;stroke:#d6d6d6;stroke-opacity:1" id="path3799" d="m 294.77863,270.46269 c 0,0 0,-15 95,-15 95,0 95,15 95,15 0,0 0,15 -95,15 -95,0 -95,-15 -95,-15 z"/><path id="path3809" d="m 389.77863,265.47551 c -64.11627,0 -83.29251,7.59423 -84.875,11.90625 11.22479,3.93491 34.8967,8.09375 84.875,8.09375 49.9783,0 73.65021,-4.15884 84.875,-8.09375 -1.58249,-4.31202 -20.75873,-11.90625 -84.875,-11.90625 z" style="fill:#562c08;fill-opacity:1;stroke:none"/><path id="path3827" d="m 292.10929,298.02015 c 2.55938,4.81149 16.9432,18.3125 97.68492,18.3125 80.69081,0 95.08106,-13.49308 97.65375,-18.3125 -5.46348,5.78106 -25.32465,16.3125 -97.65375,16.3125 -72.39656,0 -92.24323,-10.53491 -97.68492,-16.3125 z" style="fill:#000;fill-opacity:1;stroke:none"/><path style="fill:#000;fill-opacity:1;stroke:none" id="path3832" d="m 291.54108,294.02015 c 2.57427,4.81149 17.04177,18.3125 98.25322,18.3125 81.16025,0 95.63422,-13.49308 98.22187,-18.3125 -5.49527,5.78106 -25.47198,16.3125 -98.22187,16.3125 -72.81774,0 -92.77987,-10.53491 -98.25322,-16.3125 z"/><path id="path3834" d="m 302.9703,288.54748 25.00128,5.17703 c -2.71055,42.30856 3.19121,65.46435 23.73858,99.6263 -25.41202,-23.58673 -42.16474,-53.00575 -48.73986,-104.80333 z" style="fill:#fff;fill-opacity:.35294118;stroke:none"/><ellipse id="path3836" cx="279.56" cy="118.729" rx="29.042" ry="11.869" transform="matrix(1.31762,0,0,1.673,20.9841,66.1965)" style="fill:#fff;fill-opacity:.35294118;fill-rule:nonzero;stroke:none;filter:url(#filter3842)"/><path id="path3846" d="m 307.31913,54.771706 c -11.66884,-21.1275 -16.92627,-23.67626 -27.87348,-26.494634 -20.94721,-2.318374 -29.96874,3.083901 -29.28106,17.972485 0.68768,14.888584 26.53898,25.731883 26.8681,42.599832 0.32912,16.867951 -19.63135,51.743261 -19.63135,51.743261 0,0 31.42782,-33.99061 30.98863,-51.465344 -0.43918,-17.474744 -21.70744,-27.295456 -24.67515,-34.229816 -2.96771,-6.934361 -1.4691,-17.248349 14.72575,-17.437672 16.19485,-0.189323 28.87856,17.311888 28.87856,17.311888 z" transform="matrix(0.69763,0,0,0.617722,194.056,186.002)" style="opacity:.5;fill:#eaa21f;fill-opacity:.35294118;stroke:none;filter:url(#filter3868)"/></g></g></svg>