<svg xmlns="http://www.w3.org/2000/svg" xmlns:svg="http://www.w3.org/2000/svg" id="svg26" width="1025.333" height="1025.333" preserveAspectRatio="xMidYMid meet" version="1.0" viewBox="0 0 769 769"><metadata id="metadata32"/><defs id="defs30"><rect id="rect36" width="3250.09" height="2479.519" x="5649.939" y="5380.988"/><clipPath id="clipPath261" clipPathUnits="userSpaceOnUse"><circle id="circle263" cx="3846.076" cy="-3842.474" r="3723.33" fill="#c00" style="fill:green;fill-opacity:1;stroke-width:10.951"/></clipPath></defs><g id="g24" fill="#000" stroke="none" transform="translate(0.000000,769.000000) scale(0.100000,-0.100000)"><circle id="circle4" cx="3868.479" cy="-3830.24" r="3723.33" fill="#c00" transform="scale(1,-1)" style="fill:#2b0000;fill-opacity:1;stroke-width:10.951"/><circle id="circle6" cx="4963.576" cy="-3830.24" r="3066.272" fill="#fff" clip-path="url(#clipPath261)" transform="rotate(-180,3868.4792,0)" style="stroke-width:10.951"/><g id="g271" transform="translate(-11142.038,3338.7295)" style="fill:#2b0000"><text style="font-style:normal;font-variant:normal;font-weight:400;font-stretch:normal;font-size:3110.65px;line-height:1.25;font-family:Vibes;-inkscape-font-specification:Vibes;fill:#2b0000;fill-opacity:1;stroke:none;stroke-width:77.7661" id="text42" x="11858.693" y="681.611" transform="scale(1,-1)" xml:space="preserve"><tspan id="tspan40" x="11858.693" y="681.611" style="font-style:normal;font-variant:normal;font-weight:400;font-stretch:normal;font-family:'Noto Nastaliq Urdu';-inkscape-font-specification:'Noto Nastaliq Urdu';fill:#2b0000;stroke-width:77.7661">ليرة</tspan></text><path style="fill:#2b0000;fill-opacity:1;stroke-width:25.6311" id="path198" d="m 12434.29,-1991.5224 c -22.51,22.5098 18.125,80.411 167.884,239.2215 246.393,261.2848 427.511,513.2145 740.934,1030.61713 435.471,718.8808042 622.436,951.9616 866.36,1080.0538 117.002,61.4414 157.941,67.9045 470.376,74.2597 535.399,10.8908 555.231,38.3657 580.001,803.48927 24.761,764.8206 53.028,1009.0445 148.419,1282.2788 94.445,270.5252 162.412,337.5522 136.625,134.7346 -8.729,-68.6547 -38.9,-465.08 -67.047,-880.9451 -77.935,-1151.49947 -157.936,-1469.54227 -451.344,-1794.308966 -146.406,-162.054604 -289.871,-206.689704 -647.106,-201.328804 -287.855,4.3199 -311.844,0.725 -420.667,-63.0505 -120.604,-70.6784 -274.834,-261.2691 -687.509,-849.59523 -185.09,-263.8702 -739.696,-885.1242 -790.169,-885.1242 -9.382,0 -30.423,13.364 -46.757,29.698 z"/><path style="fill:#2b0000;fill-opacity:1;stroke-width:25.6311" id="path200" d="m 12015.389,-655.47507 c -49.49,33.2756 -100.429,96.9061 -117.983,147.379 -59.996,172.5031 14.152,475.717404 171.132,699.8145 63.703,90.9386 94.602,159.8652 86.151,192.179 -17.902,68.4601 68.017,254.777 172.218,373.4552 77.571,88.349 94.874,96.2739 184.077,84.3092 197.07,-26.4326 382.186,-233.5934 435.388,-487.2376 79.443,-378.747096 -150.404,-871.2129 -475.513,-1018.8251 -151.206,-68.6534 -345.758,-64.8408 -455.47,8.9258 z m 540.559,315.0619 c 154.435,29.8127 223.55,210.5981 141.311,369.631304 -65.49,126.642696 -316.171,276.054796 -405.591,241.741396 -57.934,-22.2313 -168.628,-220.274696 -185.314,-331.545596 -21.679,-144.562904 36.829,-259.138204 149.063,-291.910904 79.213,-23.1301 128.352,-21.1544 300.531,12.0838 z"/><path style="fill:#2b0000;fill-opacity:1;stroke-width:25.6311" id="path202" d="m 12073.783,1230.2778 -136.457,122.2806 134.083,158.5522 c 73.746,87.2037 147.983,158.5522 164.972,158.5522 16.988,0 74.429,-34.602 127.646,-76.8935 53.217,-42.2913 100.701,-76.8933 105.521,-76.8933 4.82,0 56.348,51.6236 114.508,114.7192 l 105.744,114.7192 112.264,-77.2394 c 205.171,-141.1612 213.363,-227.4422 37.237,-392.1874 -69.882,-65.3661 -136.928,-118.8475 -148.992,-118.8475 -12.063,0 -55.084,34.602 -95.602,76.8934 -40.518,42.2914 -81.125,76.8934 -90.239,76.8934 -9.115,0 -66.546,-46.136 -127.626,-102.5246 -61.079,-56.3884 -123.552,-102.0251 -138.828,-101.4148 -15.276,0.6104 -89.18,56.136 -164.231,123.3903 z"/><path style="fill:#2b0000;fill-opacity:1;stroke-width:25.6311" id="path204" d="m 13957.999,-1572.3221 -148.945,135.9218 151.747,161.445 c 168.866,179.6575 133.161,176.2678 333.312,31.6431 57.356,-41.4445 62.173,-39.5406 171.551,67.8051 l 112.537,110.447 71.945,-45.7432 c 236.18,-150.1642 248.679,-247.8341 54.986,-429.6826 l -132.3,-124.2093 -98.381,96.066 -98.38,96.0661 -96.117,-89.8859 c -171.109,-160.0169 -157.871,-159.6109 -321.955,-9.8731 z"/></g></g></svg>