<svg xmlns="http://www.w3.org/2000/svg" xmlns:xlink="http://www.w3.org/1999/xlink" id="Layer_1" width="500" height="500" x="0" y="0" enable-background="new 0 0 500 500" version="1.1" viewBox="0 0 500 500" xml:space="preserve"><rect width="500" height="500" fill="#FFAF1F"/><path fill="#FFF" d="M366.722,151.548L366.722,151.548c-8.689-1.846-17.223,3.702-19.069,12.382l-15.599,73.387	c-0.617,2.894-3.46,4.744-6.358,4.131c-2.888-0.618-4.742-3.462-4.124-6.359l22.281-104.839c1.847-8.682-3.692-17.22-12.386-19.064	c-8.679-1.848-17.212,3.698-19.066,12.378l-20.054,94.357c-0.614,2.893-3.46,4.744-6.355,4.125	c-2.898-0.612-4.737-3.458-4.127-6.354l22.281-104.837c1.847-8.684-3.7-17.221-12.378-19.071c-8.687-1.843-17.228,3.7-19.07,12.382	l-24.515,115.326c-0.614,2.897-3.46,4.74-6.355,4.126c-2.896-0.616-4.742-3.462-4.126-6.359l22.286-104.835	c1.846-8.682-3.7-17.221-12.389-19.062c-8.684-1.852-17.223,3.693-19.066,12.375l-6.384,30.044l-25.89,121.812	c-1.408,6.615-10.201,8.068-13.665,2.271l-15.907-26.667c-4.059-7.08-9.102-13.518-14.933-19.144	c-13.092-12.619-34.302,0.91-28.395,18.104l35.666,103.794l-0.063,0.034l1.434,4.177c10.603,30.724,36.798,55.149,70.916,62.401	c52.04,11.062,103.195-22.164,114.265-74.204l33.527-157.747C380.951,161.934,375.404,153.393,366.722,151.548"/></svg>